<svg xmlns="http://www.w3.org/2000/svg" viewBox="0 0 256 256" role="img" aria-label="Dividamos la Cuenta">
  <rect width="256" height="256" rx="56" fill="#0f172a"/>
  <rect x="58" y="44" width="104" height="144" rx="22" fill="#f8fafc"/>
  <rect x="76" y="64" width="68" height="24" rx="8" fill="#dbeafe"/>
  <g fill="#0f766e">
    <rect x="76" y="102" width="18" height="18" rx="5"/>
    <rect x="101" y="102" width="18" height="18" rx="5"/>
    <rect x="126" y="102" width="18" height="18" rx="5"/>
    <rect x="76" y="127" width="18" height="18" rx="5"/>
    <rect x="101" y="127" width="18" height="18" rx="5"/>
    <rect x="126" y="127" width="18" height="18" rx="5"/>
    <rect x="76" y="152" width="43" height="18" rx="5"/>
    <rect x="126" y="152" width="18" height="18" rx="5"/>
  </g>
  <circle cx="186" cy="150" r="42" fill="#14b8a6"/>
  <path d="M186 172c-20-12-30-22-30-36 0-10 8-18 18-18 6 0 11 3 12 9 1-6 6-9 12-9 10 0 18 8 18 18 0 14-10 24-30 36z" fill="#f8fafc"/>
</svg>